<svg xmlns="http://www.w3.org/2000/svg" width="29" height="23" viewBox="0 0 29 23"><title>Shape 2</title><path d="M27.893 22.051a2.2 2.2 0 0 1-3.061.557L15.79 16.35a2.191 2.191 0 0 1-.947-1.885 7.942 7.942 0 0 1-4.408 2.4 7.943 7.943 0 0 1-5.986-1.29 7.946 7.946 0 0 1-3.318-5.144 7.952 7.952 0 0 1 1.29-5.989C4.932.815 9.925-.094 13.553 2.416c3.293 2.28 4.346 6.606 2.634 10.098a2.197 2.197 0 0 1 2.106.219l9.044 6.257a2.199 2.199 0 0 1 .556 3.061zM14.488 7.997a5.535 5.535 0 0 0-2.312-3.587 5.59 5.59 0 0 0-7.765 1.41 5.587 5.587 0 0 0 1.414 7.763 5.586 5.586 0 0 0 7.763-1.411 5.542 5.542 0 0 0 .9-4.175z" fill="#cdcdcd"/><path d="M27.893 22.051a2.2 2.2 0 0 1-3.061.557L15.79 16.35a2.191 2.191 0 0 1-.947-1.885 7.942 7.942 0 0 1-4.408 2.4 7.943 7.943 0 0 1-5.986-1.29 7.946 7.946 0 0 1-3.318-5.144 7.952 7.952 0 0 1 1.29-5.989C4.932.815 9.925-.094 13.553 2.416c3.293 2.28 4.346 6.606 2.634 10.098a2.197 2.197 0 0 1 2.106.219l9.044 6.257a2.199 2.199 0 0 1 .556 3.061zM14.488 7.997a5.535 5.535 0 0 0-2.312-3.587 5.59 5.59 0 0 0-7.765 1.41 5.587 5.587 0 0 0 1.414 7.763 5.586 5.586 0 0 0 7.763-1.411 5.542 5.542 0 0 0 .9-4.175z" fill="#a8a8a8"/></svg>