<svg id="SvgjsSvg1000" xmlns="http://www.w3.org/2000/svg" version="1.1" xmlns:xlink="http://www.w3.org/1999/xlink" xmlns:svgjs="http://svgjs.com/svgjs" width="29" height="23" viewBox="0 0 29 23"><title>Shape 2</title><desc>Created with Avocode.</desc><defs id="SvgjsDefs1001"></defs><path id="SvgjsPath1007" d="M946.893 175.051C946.203 176.04899999999998 944.831 176.29999999999998 943.832 175.60799999999998L934.79 169.34999999999997C934.15 168.90899999999996 933.818 168.18899999999996 933.843 167.46499999999997C932.678 168.71399999999997 931.1479999999999 169.55299999999997 929.435 169.86499999999998C927.3299999999999 170.24899999999997 925.204 169.79 923.449 168.575C921.693 167.361 920.515 165.534 920.131 163.43099999999998C919.7479999999999 161.326 920.2049999999999 159.19899999999998 921.4209999999999 157.44199999999998C923.9319999999999 153.81499999999997 928.925 152.90599999999998 932.5529999999999 155.41599999999997C935.8459999999999 157.69599999999997 936.8989999999999 162.02199999999996 935.1869999999999 165.51399999999998C935.8559999999999 165.23299999999998 936.6489999999999 165.28799999999998 937.2929999999999 165.73299999999998L946.3369999999999 171.98999999999998C947.3359999999999 172.682 947.5859999999999 174.052 946.8929999999999 175.051ZM933.488 160.997C933.221 159.53 932.4000000000001 158.256 931.176 157.41000000000003C928.647 155.65900000000002 925.1640000000001 156.29200000000003 923.4110000000001 158.82000000000002C921.662 161.35200000000003 922.2950000000001 164.83400000000003 924.825 166.58300000000003C927.354 168.33400000000003 930.836 167.70100000000002 932.5880000000001 165.17200000000003C933.436 163.94700000000003 933.7550000000001 162.46500000000003 933.488 160.997Z " fill="#cdcdcd" fill-opacity="1" transform="matrix(1,0,0,1,-919,-153)"></path><path id="SvgjsPath1008" d="M946.893 175.051C946.203 176.04899999999998 944.831 176.29999999999998 943.832 175.60799999999998L934.79 169.34999999999997C934.15 168.90899999999996 933.818 168.18899999999996 933.843 167.46499999999997C932.678 168.71399999999997 931.1479999999999 169.55299999999997 929.435 169.86499999999998C927.3299999999999 170.24899999999997 925.204 169.79 923.449 168.575C921.693 167.361 920.515 165.534 920.131 163.43099999999998C919.7479999999999 161.326 920.2049999999999 159.19899999999998 921.4209999999999 157.44199999999998C923.9319999999999 153.81499999999997 928.925 152.90599999999998 932.5529999999999 155.41599999999997C935.8459999999999 157.69599999999997 936.8989999999999 162.02199999999996 935.1869999999999 165.51399999999998C935.8559999999999 165.23299999999998 936.6489999999999 165.28799999999998 937.2929999999999 165.73299999999998L946.3369999999999 171.98999999999998C947.3359999999999 172.682 947.5859999999999 174.052 946.8929999999999 175.051ZM933.488 160.997C933.221 159.53 932.4000000000001 158.256 931.176 157.41000000000003C928.647 155.65900000000002 925.1640000000001 156.29200000000003 923.4110000000001 158.82000000000002C921.662 161.35200000000003 922.2950000000001 164.83400000000003 924.825 166.58300000000003C927.354 168.33400000000003 930.836 167.70100000000002 932.5880000000001 165.17200000000003C933.436 163.94700000000003 933.7550000000001 162.46500000000003 933.488 160.997Z " fill="#a8a8a8" fill-opacity="1" transform="matrix(1,0,0,1,-919,-153)"></path></svg>